<?xml version="1.0" encoding="UTF-8" standalone="no"?>
<!DOCTYPE svg PUBLIC "-//W3C//DTD SVG 1.1//EN"
 "http://www.w3.org/Graphics/SVG/1.1/DTD/svg11.dtd">
<!-- Generated by graphviz version 3.0.0 (20220226.1711)
 -->
<!-- Pages: 1 -->
<svg width="790pt" height="305pt"
 viewBox="0.00 0.00 790.00 305.00" xmlns="http://www.w3.org/2000/svg" xmlns:xlink="http://www.w3.org/1999/xlink">
<g id="graph0" class="graph" transform="scale(1 1) rotate(0) translate(4 301)">
<polygon fill="white" stroke="transparent" points="-4,4 -4,-301 786,-301 786,4 -4,4"/>
<!-- 0 -->
<g id="node1" class="node">
<title>0</title>
<ellipse fill="none" stroke="black" cx="388" cy="-279" rx="68.79" ry="18"/>
<text text-anchor="middle" x="388" y="-275.3" font-family="Times,serif" font-size="14.00">3, value&gt;808.05</text>
</g>
<!-- 1 -->
<g id="node2" class="node">
<title>1</title>
<ellipse fill="none" stroke="black" cx="306" cy="-192" rx="73.39" ry="18"/>
<text text-anchor="middle" x="306" y="-188.3" font-family="Times,serif" font-size="14.00">11, value&gt;1.5095</text>
</g>
<!-- 0&#45;&gt;1 -->
<g id="edge1" class="edge">
<title>0&#45;&gt;1</title>
<path fill="none" stroke="black" d="M371.8,-261.21C359.67,-248.63 342.9,-231.25 329.33,-217.18"/>
<polygon fill="black" stroke="black" points="331.63,-214.53 322.17,-209.76 326.59,-219.39 331.63,-214.53"/>
<text text-anchor="middle" x="360.5" y="-231.8" font-family="Times,serif" font-size="14.00">No</text>
</g>
<!-- 2 -->
<g id="node3" class="node">
<title>2</title>
<ellipse fill="none" stroke="black" cx="473" cy="-192" rx="73.39" ry="18"/>
<text text-anchor="middle" x="473" y="-188.3" font-family="Times,serif" font-size="14.00">11, value&gt;1.5095</text>
</g>
<!-- 0&#45;&gt;2 -->
<g id="edge2" class="edge">
<title>0&#45;&gt;2</title>
<path fill="none" stroke="black" d="M404.79,-261.21C417.37,-248.63 434.75,-231.25 448.82,-217.18"/>
<polygon fill="black" stroke="black" points="451.65,-219.3 456.24,-209.76 446.7,-214.35 451.65,-219.3"/>
<text text-anchor="middle" x="446.5" y="-231.8" font-family="Times,serif" font-size="14.00">Yes</text>
</g>
<!-- 3 -->
<g id="node4" class="node">
<title>3</title>
<ellipse fill="none" stroke="black" cx="140" cy="-105" rx="73.39" ry="18"/>
<text text-anchor="middle" x="140" y="-101.3" font-family="Times,serif" font-size="14.00">22, value&gt;105.15</text>
</g>
<!-- 1&#45;&gt;3 -->
<g id="edge3" class="edge">
<title>1&#45;&gt;3</title>
<path fill="none" stroke="black" d="M275.55,-175.41C248.53,-161.57 208.87,-141.26 179.43,-126.19"/>
<polygon fill="black" stroke="black" points="180.75,-122.93 170.25,-121.49 177.56,-129.16 180.75,-122.93"/>
<text text-anchor="middle" x="241.5" y="-144.8" font-family="Times,serif" font-size="14.00">No</text>
</g>
<!-- 4 -->
<g id="node5" class="node">
<title>4</title>
<ellipse fill="none" stroke="black" cx="306" cy="-105" rx="73.39" ry="18"/>
<text text-anchor="middle" x="306" y="-101.3" font-family="Times,serif" font-size="14.00">22, value&gt;105.15</text>
</g>
<!-- 1&#45;&gt;4 -->
<g id="edge4" class="edge">
<title>1&#45;&gt;4</title>
<path fill="none" stroke="black" d="M306,-173.8C306,-162.16 306,-146.55 306,-133.24"/>
<polygon fill="black" stroke="black" points="309.5,-133.18 306,-123.18 302.5,-133.18 309.5,-133.18"/>
<text text-anchor="middle" x="316.5" y="-144.8" font-family="Times,serif" font-size="14.00">Yes</text>
</g>
<!-- 5 -->
<g id="node6" class="node">
<title>5</title>
<ellipse fill="none" stroke="black" cx="473" cy="-105" rx="73.39" ry="18"/>
<text text-anchor="middle" x="473" y="-101.3" font-family="Times,serif" font-size="14.00">22, value&gt;105.15</text>
</g>
<!-- 2&#45;&gt;5 -->
<g id="edge5" class="edge">
<title>2&#45;&gt;5</title>
<path fill="none" stroke="black" d="M473,-173.8C473,-162.16 473,-146.55 473,-133.24"/>
<polygon fill="black" stroke="black" points="476.5,-133.18 473,-123.18 469.5,-133.18 476.5,-133.18"/>
<text text-anchor="middle" x="481.5" y="-144.8" font-family="Times,serif" font-size="14.00">No</text>
</g>
<!-- 6 -->
<g id="node7" class="node">
<title>6</title>
<ellipse fill="none" stroke="black" cx="640" cy="-105" rx="73.39" ry="18"/>
<text text-anchor="middle" x="640" y="-101.3" font-family="Times,serif" font-size="14.00">22, value&gt;105.15</text>
</g>
<!-- 2&#45;&gt;6 -->
<g id="edge6" class="edge">
<title>2&#45;&gt;6</title>
<path fill="none" stroke="black" d="M503.63,-175.41C530.82,-161.57 570.71,-141.26 600.34,-126.19"/>
<polygon fill="black" stroke="black" points="602.24,-129.15 609.56,-121.49 599.06,-122.91 602.24,-129.15"/>
<text text-anchor="middle" x="577.5" y="-144.8" font-family="Times,serif" font-size="14.00">Yes</text>
</g>
<!-- 7 -->
<g id="node8" class="node">
<title>7</title>
<polygon fill="none" stroke="red" points="80,-36 0,-36 0,0 80,0 80,-36"/>
<text text-anchor="middle" x="40" y="-14.3" font-family="Times,serif" font-size="14.00">val = 0.118</text>
</g>
<!-- 3&#45;&gt;7 -->
<g id="edge7" class="edge">
<title>3&#45;&gt;7</title>
<path fill="none" stroke="black" d="M120.72,-87.61C105.79,-74.92 84.91,-57.17 68.12,-42.9"/>
<polygon fill="black" stroke="black" points="70.14,-40.02 60.25,-36.21 65.6,-45.36 70.14,-40.02"/>
<text text-anchor="middle" x="104.5" y="-57.8" font-family="Times,serif" font-size="14.00">No</text>
</g>
<!-- 8 -->
<g id="node9" class="node">
<title>8</title>
<polygon fill="none" stroke="red" points="182,-36 98,-36 98,0 182,0 182,-36"/>
<text text-anchor="middle" x="140" y="-14.3" font-family="Times,serif" font-size="14.00">val = &#45;0.020</text>
</g>
<!-- 3&#45;&gt;8 -->
<g id="edge8" class="edge">
<title>3&#45;&gt;8</title>
<path fill="none" stroke="black" d="M140,-86.8C140,-75.16 140,-59.55 140,-46.24"/>
<polygon fill="black" stroke="black" points="143.5,-46.18 140,-36.18 136.5,-46.18 143.5,-46.18"/>
<text text-anchor="middle" x="150.5" y="-57.8" font-family="Times,serif" font-size="14.00">Yes</text>
</g>
<!-- 9 -->
<g id="node10" class="node">
<title>9</title>
<polygon fill="none" stroke="red" points="280,-36 200,-36 200,0 280,0 280,-36"/>
<text text-anchor="middle" x="240" y="-14.3" font-family="Times,serif" font-size="14.00">val = 0.073</text>
</g>
<!-- 4&#45;&gt;9 -->
<g id="edge9" class="edge">
<title>4&#45;&gt;9</title>
<path fill="none" stroke="black" d="M292.96,-87.21C283.44,-74.95 270.37,-58.11 259.6,-44.24"/>
<polygon fill="black" stroke="black" points="262.14,-41.8 253.24,-36.05 256.61,-46.09 262.14,-41.8"/>
<text text-anchor="middle" x="285.5" y="-57.8" font-family="Times,serif" font-size="14.00">No</text>
</g>
<!-- 10 -->
<g id="node11" class="node">
<title>10</title>
<polygon fill="none" stroke="red" points="382,-36 298,-36 298,0 382,0 382,-36"/>
<text text-anchor="middle" x="340" y="-14.3" font-family="Times,serif" font-size="14.00">val = &#45;0.065</text>
</g>
<!-- 4&#45;&gt;10 -->
<g id="edge10" class="edge">
<title>4&#45;&gt;10</title>
<path fill="none" stroke="black" d="M312.88,-86.8C317.58,-75.05 323.9,-59.24 329.26,-45.84"/>
<polygon fill="black" stroke="black" points="332.67,-46.76 333.13,-36.18 326.17,-44.16 332.67,-46.76"/>
<text text-anchor="middle" x="336.5" y="-57.8" font-family="Times,serif" font-size="14.00">Yes</text>
</g>
<!-- 11 -->
<g id="node12" class="node">
<title>11</title>
<polygon fill="none" stroke="red" points="480,-36 400,-36 400,0 480,0 480,-36"/>
<text text-anchor="middle" x="440" y="-14.3" font-family="Times,serif" font-size="14.00">val = 0.000</text>
</g>
<!-- 5&#45;&gt;11 -->
<g id="edge11" class="edge">
<title>5&#45;&gt;11</title>
<path fill="none" stroke="black" d="M466.32,-86.8C461.76,-75.05 455.62,-59.24 450.42,-45.84"/>
<polygon fill="black" stroke="black" points="453.55,-44.23 446.67,-36.18 447.02,-46.76 453.55,-44.23"/>
<text text-anchor="middle" x="467.5" y="-57.8" font-family="Times,serif" font-size="14.00">No</text>
</g>
<!-- 12 -->
<g id="node13" class="node">
<title>12</title>
<polygon fill="none" stroke="red" points="582,-36 498,-36 498,0 582,0 582,-36"/>
<text text-anchor="middle" x="540" y="-14.3" font-family="Times,serif" font-size="14.00">val = &#45;0.077</text>
</g>
<!-- 5&#45;&gt;12 -->
<g id="edge12" class="edge">
<title>5&#45;&gt;12</title>
<path fill="none" stroke="black" d="M486.24,-87.21C495.9,-74.95 509.17,-58.11 520.11,-44.24"/>
<polygon fill="black" stroke="black" points="523.12,-46.07 526.56,-36.05 517.62,-41.74 523.12,-46.07"/>
<text text-anchor="middle" x="521.5" y="-57.8" font-family="Times,serif" font-size="14.00">Yes</text>
</g>
<!-- 13 -->
<g id="node14" class="node">
<title>13</title>
<polygon fill="none" stroke="red" points="680,-36 600,-36 600,0 680,0 680,-36"/>
<text text-anchor="middle" x="640" y="-14.3" font-family="Times,serif" font-size="14.00">val = 0.000</text>
</g>
<!-- 6&#45;&gt;13 -->
<g id="edge13" class="edge">
<title>6&#45;&gt;13</title>
<path fill="none" stroke="black" d="M640,-86.8C640,-75.16 640,-59.55 640,-46.24"/>
<polygon fill="black" stroke="black" points="643.5,-46.18 640,-36.18 636.5,-46.18 643.5,-46.18"/>
<text text-anchor="middle" x="648.5" y="-57.8" font-family="Times,serif" font-size="14.00">No</text>
</g>
<!-- 14 -->
<g id="node15" class="node">
<title>14</title>
<polygon fill="none" stroke="red" points="782,-36 698,-36 698,0 782,0 782,-36"/>
<text text-anchor="middle" x="740" y="-14.3" font-family="Times,serif" font-size="14.00">val = &#45;0.067</text>
</g>
<!-- 6&#45;&gt;14 -->
<g id="edge14" class="edge">
<title>6&#45;&gt;14</title>
<path fill="none" stroke="black" d="M659.28,-87.61C674.21,-74.92 695.09,-57.17 711.88,-42.9"/>
<polygon fill="black" stroke="black" points="714.4,-45.36 719.75,-36.21 709.86,-40.02 714.4,-45.36"/>
<text text-anchor="middle" x="706.5" y="-57.8" font-family="Times,serif" font-size="14.00">Yes</text>
</g>
</g>
</svg>
